<svg width="128" height="127" viewBox="0 0 128 127" fill="none" xmlns="http://www.w3.org/2000/svg">
<mask id="path-1-outside-1_608_51" maskUnits="userSpaceOnUse" x="0.107361" y="0" width="127" height="127" fill="black">
<rect fill="white" x="0.107361" width="127" height="127"/>
<path d="M37.3235 76.2563C32.0179 67.9138 30.8387 57.5391 34.1334 48.1887L34.387 47.4692C36.9246 40.2674 42.0761 34.3222 48.7878 30.8496C56.9141 26.6451 66.4974 26.4882 74.7528 30.4246L76.4691 31.2429C83.2445 34.4735 88.6252 40.105 91.6001 47.0796C95.8278 56.9909 94.7046 68.4178 88.6313 77.2852L81.5799 87.5806C78.9345 91.443 77.2544 95.9011 76.6846 100.57L74.7853 116.133C74.0975 121.768 69.3818 126 63.7896 126C58.5136 126 53.9694 122.222 52.9278 116.97L49.4788 99.579C48.6771 95.5366 47.1346 91.683 44.9315 88.219L37.3235 76.2563Z"/>
<path d="M65.4916 110.12C64.9211 111.998 62.3117 112.022 61.7079 110.155L49.6729 72.9381C49.033 70.9595 51.4075 69.4147 52.9103 70.8317L55.9232 73.6725C56.841 74.5378 58.3089 74.3348 58.9653 73.2517L61.9624 68.3063C62.7378 67.027 64.5691 67.027 65.3444 68.3063L68.2748 73.1416C68.9526 74.2599 70.4855 74.4324 71.388 73.492L73.2947 71.5048C74.7497 69.9885 77.2287 71.4831 76.6142 73.5061L71.0529 91.8131L65.4916 110.12Z"/>
<path d="M109.156 28.9069C109.313 29.1349 109.259 29.4492 109.034 29.6089L96.0223 38.8601C95.7978 39.0198 95.4883 38.9644 95.331 38.7363C95.1738 38.5083 95.2283 38.194 95.4529 38.0344L108.465 28.7831C108.689 28.6235 108.999 28.6789 109.156 28.9069Z"/>
<path d="M81.9826 24.8056C81.7289 24.7001 81.6075 24.4058 81.7114 24.1482L87.7324 9.22278C87.8364 8.96518 88.1262 8.8419 88.3799 8.94741C88.6336 9.05293 88.755 9.34729 88.6511 9.60489L82.6301 24.5303C82.5262 24.7879 82.2363 24.9112 81.9826 24.8056Z"/>
<path d="M62.1643 18.1371C61.8901 18.1371 61.6679 17.9114 61.6679 17.6331V1.50403C61.6679 1.22566 61.8901 1 62.1643 1C62.4384 1 62.6607 1.22566 62.6607 1.50403V17.6331C62.6607 17.9114 62.4384 18.1371 62.1643 18.1371Z"/>
<path d="M36.5383 9.35236C36.7634 9.19339 37.0727 9.24976 37.2293 9.47828L41.7648 16.0984L46.3004 22.7185C46.457 22.947 46.4014 23.2611 46.1764 23.4201C45.9513 23.5791 45.642 23.5227 45.4854 23.2942L36.4143 10.054C36.2577 9.82545 36.3133 9.51133 36.5383 9.35236Z"/>
<path d="M31.805 38.4429C31.6477 38.6709 31.3382 38.7263 31.1136 38.5667L18.1021 29.3154C17.8775 29.1558 17.8229 28.8415 17.9802 28.6134C18.1374 28.3854 18.4469 28.33 18.6715 28.4897L31.6831 37.7409C31.9076 37.9006 31.9622 38.2149 31.805 38.4429Z"/>
<path d="M47.9747 105.839C47.9747 104.168 49.3081 102.815 50.953 102.815H76.7649C78.4098 102.815 79.7432 104.168 79.7432 105.839C79.7432 107.509 78.4098 108.863 76.7649 108.863H50.953C49.3081 108.863 47.9747 107.509 47.9747 105.839Z"/>
<path d="M47.7692 110.879C47.7692 109.209 49.1026 107.855 50.7475 107.855H76.5594C78.2043 107.855 79.5377 109.209 79.5377 110.879C79.5377 112.549 78.2043 113.903 76.5594 113.903H50.7475C49.1026 113.903 47.7692 112.549 47.7692 110.879Z"/>
<path d="M47.7692 115.919C47.7692 114.249 49.1026 112.895 50.7475 112.895H76.5594C78.2043 112.895 79.5377 114.249 79.5377 115.919C79.5377 117.59 78.2043 118.944 76.5594 118.944H50.7475C49.1026 118.944 47.7692 117.59 47.7692 115.919Z"/>
<path d="M4.17557 58.5601L5.37327 55.7701C8.85154 47.6675 19.2722 45.6636 25.4273 51.9136C29.3067 55.8527 35.2801 56.7211 40.0921 54.0454L48.5945 49.3175C51.387 47.7647 54.4432 46.7614 57.6024 46.3605L64.3815 45.5C69.7518 44.8184 75.1909 46.0077 79.809 48.8733C86.5297 53.0437 94.8424 53.5842 102.032 50.3182L106.73 48.184C108.496 47.3819 110.408 46.9673 112.342 46.9673C123.134 46.9673 129.715 59.0177 124 68.3125L120.957 73.2616C119.573 75.5121 118.84 78.1119 118.84 80.7649V81.4271C118.84 83.2915 118.393 85.1278 117.538 86.7776C115.336 91.025 110.766 93.4349 106.078 92.8207L102.186 92.3108C99.7499 91.9916 97.4108 91.1387 95.331 89.8112L92.6889 88.1249C85.8533 83.762 76.9888 84.5778 71.0372 90.1176C63.5338 97.1017 51.8157 96.3476 45.2408 88.4574L43.7978 86.7258C38.7127 80.6235 30.5839 78.103 23.0089 80.2799L15.8949 82.3243C11.7408 83.5181 7.27729 82.2754 4.30375 79.0971C1.45783 76.0553 0.416427 71.7078 1.56847 67.6785L4.17557 58.5601Z"/>
<path d="M23.819 68.4512L24.0692 68.2678C24.3842 68.0796 24.6066 67.9855 24.7363 67.9855C25.0236 67.9855 25.334 68.2489 25.6676 68.7758C25.8714 69.1051 25.9733 69.3686 25.9733 69.5661C25.9733 69.7637 25.9085 69.9284 25.7787 70.0601C25.6583 70.1918 25.5147 70.3094 25.3479 70.4129C25.1811 70.5164 25.0189 70.6152 24.8614 70.7093C24.7132 70.8034 24.4028 70.9257 23.9302 71.0762C23.4577 71.2267 22.999 71.302 22.5543 71.302C22.1188 71.302 21.674 71.2456 21.22 71.1327C20.7752 71.0104 20.3119 70.8128 19.8301 70.5399C19.3576 70.2577 18.9313 69.919 18.5514 69.5238C18.1715 69.1192 17.8565 68.6065 17.6063 67.9855C17.3654 67.3551 17.245 66.673 17.245 65.9391C17.245 65.2053 17.3654 64.5419 17.6063 63.9492C17.8472 63.3471 18.153 62.8531 18.5236 62.4673C18.9035 62.0722 19.3344 61.7429 19.8162 61.4794C20.7243 60.9714 21.6369 60.7173 22.5543 60.7173C22.9897 60.7173 23.4299 60.7879 23.8746 60.929C24.3286 61.0608 24.6715 61.1972 24.9031 61.3383L25.2367 61.5359C25.4035 61.6394 25.5332 61.7241 25.6259 61.7899C25.8668 61.9875 25.9872 62.2133 25.9872 62.4673C25.9872 62.712 25.8899 62.9707 25.6954 63.2436C25.334 63.7516 25.0097 64.0057 24.7224 64.0057C24.5557 64.0057 24.3194 63.9022 24.0136 63.6952C23.6244 63.3753 23.1056 63.2153 22.457 63.2153C21.8547 63.2153 21.2617 63.427 20.6779 63.8504C20.4 64.0574 20.1683 64.3491 19.983 64.7254C19.7977 65.1017 19.705 65.5298 19.705 66.0097C19.705 66.4801 19.7977 66.9035 19.983 67.2799C20.1683 67.6562 20.4046 67.9526 20.6918 68.169C21.257 68.5829 21.8454 68.7899 22.457 68.7899C22.7442 68.7899 23.0129 68.7523 23.2631 68.677C23.5225 68.6018 23.7078 68.5265 23.819 68.4512Z"/>
<path d="M26.6781 67.4492C26.6781 66.3202 27.0673 65.3887 27.8456 64.6548C28.624 63.921 29.5135 63.554 30.5142 63.554C31.5149 63.554 32.3998 63.921 33.1688 64.6548C33.9379 65.3793 34.3224 66.306 34.3224 67.4351C34.3224 68.216 34.1232 68.9122 33.7248 69.5238C33.3263 70.126 32.8399 70.5729 32.2654 70.8645C31.7002 71.1468 31.1118 71.2879 30.5003 71.2879C29.8887 71.2879 29.2957 71.1374 28.7212 70.8363C28.1468 70.5258 27.6603 70.0742 27.2619 69.4815C26.8727 68.8793 26.6781 68.2019 26.6781 67.4492ZM29.583 68.4653C29.8795 68.6911 30.1806 68.804 30.4864 68.804C30.7921 68.804 31.0979 68.6864 31.4037 68.4512C31.7095 68.216 31.8624 67.8679 31.8624 67.4069C31.8624 66.9458 31.7187 66.6024 31.4315 66.3766C31.1442 66.1508 30.8338 66.0379 30.5003 66.0379C30.1667 66.0379 29.8563 66.1555 29.5691 66.3907C29.2818 66.6259 29.1382 66.9741 29.1382 67.4351C29.1382 67.8867 29.2865 68.2301 29.583 68.4653Z"/>
<path d="M37.611 64.7113C38.0465 64.0433 38.57 63.7093 39.1815 63.7093C40.1266 63.7093 40.8308 64.1186 41.2941 64.9371C41.396 64.796 41.5165 64.6501 41.6555 64.4996C41.8037 64.3396 42.0354 64.1703 42.3504 63.9915C42.6655 63.8034 42.9898 63.7093 43.3233 63.7093C44.0646 63.7093 44.6854 64.0009 45.1858 64.5843C45.6861 65.1582 45.9363 66.1132 45.9363 67.4492V69.919C45.9363 70.1354 45.927 70.3 45.9085 70.4129C45.8992 70.5164 45.8575 70.6387 45.7834 70.7799C45.6629 71.0339 45.3062 71.1609 44.7132 71.1609C44.1295 71.1609 43.7727 71.0292 43.643 70.7657C43.5781 70.6246 43.5364 70.5023 43.5179 70.3988C43.5086 70.2859 43.504 70.1212 43.504 69.9048V67.4351C43.504 66.6165 43.2168 66.2073 42.6423 66.2073C42.318 66.2073 42.0956 66.3155 41.9752 66.5319C41.864 66.7483 41.8084 67.054 41.8084 67.4492V69.919C41.8084 70.1448 41.7991 70.3094 41.7806 70.4129C41.7713 70.5164 41.7296 70.6387 41.6555 70.7799C41.5258 71.0339 41.1644 71.1609 40.5714 71.1609C39.9876 71.1609 39.6309 71.0292 39.5012 70.7657C39.4363 70.6246 39.3946 70.5023 39.3761 70.3988C39.3668 70.2859 39.3622 70.1212 39.3622 69.9048V67.4351C39.3622 66.6165 39.075 66.2073 38.5005 66.2073C37.9445 66.2073 37.6666 66.6165 37.6666 67.4351V69.9331C37.6666 70.1495 37.6573 70.3141 37.6388 70.427C37.6295 70.5305 37.5878 70.6528 37.5137 70.794C37.3747 71.0386 37.0133 71.1609 36.4296 71.1609C35.8458 71.1609 35.4891 71.0339 35.3594 70.7799C35.2945 70.6387 35.2528 70.5164 35.2343 70.4129C35.225 70.3094 35.2204 70.1448 35.2204 69.919V64.9512C35.2204 64.7348 35.225 64.5749 35.2343 64.4714C35.2528 64.3585 35.2992 64.2362 35.3733 64.1044C35.5123 63.8504 35.8412 63.7234 36.3601 63.7234C36.879 63.7234 37.2172 63.8081 37.3747 63.9774C37.5322 64.1468 37.611 64.3914 37.611 64.7113Z"/>
<path d="M51.0518 63.7375C51.6911 63.7375 52.0664 63.9163 52.1775 64.2738C52.2331 64.4526 52.2609 64.6878 52.2609 64.9795C52.2609 65.2711 52.2285 65.5063 52.1636 65.6851C52.1081 65.8544 52.0154 65.9768 51.8857 66.052C51.6911 66.1649 51.4085 66.2214 51.0379 66.2214L50.1483 66.1649V69.9472C50.1483 70.3047 50.102 70.5729 50.0094 70.7516C49.926 70.921 49.7916 71.0339 49.6063 71.0903C49.4302 71.1468 49.1986 71.175 48.9114 71.175C48.6241 71.175 48.3925 71.1468 48.2164 71.0903C48.0496 71.0245 47.9292 70.9257 47.8551 70.794C47.7809 70.6528 47.7346 70.5258 47.7161 70.4129C47.7068 70.3 47.7022 70.1354 47.7022 69.919V66.179H47.2018C46.9609 66.1602 46.7895 66.1038 46.6876 66.0097C46.5115 65.8309 46.4235 65.4875 46.4235 64.9795C46.4235 64.2079 46.6968 63.8222 47.2435 63.8222H47.7022V63.0742C47.7022 62.3497 47.957 61.6958 48.4666 61.1125C48.9762 60.5198 49.7128 60.2234 50.6765 60.2234C50.8896 60.2234 51.0471 60.2328 51.149 60.2516C51.2602 60.261 51.3853 60.3034 51.5243 60.3786C51.7745 60.501 51.8996 60.8632 51.8996 61.4653C51.8996 61.9169 51.8208 62.2415 51.6633 62.4391C51.5336 62.5897 51.3297 62.6743 51.0518 62.6932C50.9684 62.6932 50.8386 62.6932 50.6626 62.6932C50.3198 62.6932 50.1483 62.8108 50.1483 63.046V63.8222L51.0518 63.7375Z"/>
<path d="M52.5481 67.4492C52.5481 66.3202 52.9373 65.3887 53.7156 64.6548C54.494 63.921 55.3835 63.554 56.3842 63.554C57.3849 63.554 58.2698 63.921 59.0388 64.6548C59.8079 65.3793 60.1924 66.306 60.1924 67.4351C60.1924 68.216 59.9932 68.9122 59.5948 69.5238C59.1963 70.126 58.7099 70.5729 58.1354 70.8645C57.5702 71.1468 56.9818 71.2879 56.3703 71.2879C55.7587 71.2879 55.1657 71.1374 54.5912 70.8363C54.0168 70.5258 53.5303 70.0742 53.1319 69.4815C52.7427 68.8793 52.5481 68.2019 52.5481 67.4492ZM55.453 68.4653C55.7495 68.6911 56.0506 68.804 56.3564 68.804C56.6622 68.804 56.9679 68.6864 57.2737 68.4512C57.5795 68.216 57.7324 67.8679 57.7324 67.4069C57.7324 66.9458 57.5887 66.6024 57.3015 66.3766C57.0143 66.1508 56.7038 66.0379 56.3703 66.0379C56.0367 66.0379 55.7263 66.1555 55.4391 66.3907C55.1518 66.6259 55.0082 66.9741 55.0082 67.4351C55.0082 67.8867 55.1565 68.2301 55.453 68.4653Z"/>
<path d="M66.0661 63.8081C66.2422 63.8645 66.3858 63.9633 66.497 64.1044C66.6174 64.2362 66.6777 64.4526 66.6777 64.7536C66.6777 65.0547 66.5896 65.384 66.4136 65.7415C66.2375 66.0991 65.9827 66.2778 65.6492 66.2778C65.4824 66.2778 65.3202 66.2402 65.1627 66.1649C65.0145 66.0897 64.8153 66.052 64.5651 66.052C64.3149 66.052 64.0786 66.1414 63.8562 66.3202C63.6431 66.4989 63.5366 66.7153 63.5366 66.9694V69.9331C63.5366 70.1495 63.5273 70.3141 63.5088 70.427C63.4995 70.5305 63.4578 70.6528 63.3837 70.794C63.2447 71.0386 62.8833 71.1609 62.2996 71.1609C61.8548 71.1609 61.5352 71.0809 61.3406 70.921C61.1923 70.7893 61.1089 70.587 61.0904 70.3141C61.0904 70.22 61.0904 70.0836 61.0904 69.9048V64.9512C61.0904 64.7348 61.095 64.5749 61.1043 64.4714C61.1228 64.3585 61.1645 64.2362 61.2294 64.1044C61.3591 63.8504 61.7205 63.7234 62.3135 63.7234C62.8694 63.7234 63.2169 63.8316 63.3559 64.048C63.4578 64.1985 63.5088 64.3538 63.5088 64.5137C63.5551 64.4479 63.62 64.3679 63.7034 64.2738C63.796 64.1797 63.986 64.0527 64.2732 63.8928C64.5604 63.7328 64.8106 63.6528 65.0237 63.6528C65.2461 63.6528 65.4314 63.6669 65.5797 63.6952C65.7279 63.714 65.8901 63.7516 66.0661 63.8081Z"/>
<path d="M71.6955 66.2214L70.7921 66.1649V68.1125C70.7921 68.3665 70.8292 68.55 70.9033 68.6629C70.9867 68.7758 71.1349 68.8323 71.3481 68.8323C71.5704 68.8323 71.7372 68.8417 71.8484 68.8605C71.9689 68.8699 72.094 68.9122 72.2237 68.9875C72.4368 69.1098 72.5433 69.425 72.5433 69.9331C72.5433 70.5258 72.4136 70.888 72.1542 71.0198C72.0152 71.0856 71.8901 71.128 71.7789 71.1468C71.677 71.1562 71.5241 71.1609 71.3203 71.1609C70.3566 71.1609 69.6246 70.9398 69.1243 70.4976C68.6239 70.0554 68.3737 69.3074 68.3737 68.2536V66.1649C68.1977 66.1932 68.0077 66.2073 67.8039 66.2073C67.6001 66.2073 67.4286 66.1273 67.2896 65.9673C67.1599 65.8074 67.0951 65.5346 67.0951 65.1488C67.0951 64.7631 67.1182 64.4855 67.1646 64.3161C67.2109 64.1374 67.2758 64.0104 67.3591 63.9351C67.5074 63.8128 67.6927 63.7516 67.9151 63.7516L68.3737 63.8081V62.3544C68.3737 62.138 68.3784 61.9781 68.3876 61.8746C68.4062 61.7711 68.4525 61.6582 68.5266 61.5359C68.6471 61.3007 69.0038 61.1831 69.5968 61.1831C70.2269 61.1831 70.6022 61.3571 70.7226 61.7052C70.7689 61.8558 70.7921 62.0957 70.7921 62.425V63.8081C71.1998 63.7704 71.5056 63.7516 71.7094 63.7516C71.9225 63.7516 72.0801 63.761 72.182 63.7798C72.2932 63.7893 72.4183 63.8316 72.5573 63.9069C72.7982 64.0292 72.9186 64.3914 72.9186 64.9936C72.9186 65.5863 72.7935 65.9485 72.5433 66.0803C72.4044 66.1461 72.2793 66.1884 72.1681 66.2073C72.0662 66.2167 71.9086 66.2214 71.6955 66.2214Z"/>
<path d="M74.3532 60.802H82.0809C82.3774 60.802 82.5951 60.8397 82.7341 60.9149C82.8731 60.9808 82.9658 61.089 83.0121 61.2395C83.0584 61.3901 83.0816 61.5876 83.0816 61.8323C83.0816 62.0769 83.0584 62.2745 83.0121 62.425C82.9658 62.5661 82.887 62.6649 82.7758 62.7214C82.609 62.8061 82.3727 62.8484 82.067 62.8484H79.4123V69.9472C79.4123 70.1636 79.4031 70.3235 79.3845 70.427C79.3753 70.5305 79.3336 70.6528 79.2595 70.794C79.1946 70.9257 79.0741 71.0198 78.8981 71.0762C78.722 71.1327 78.4904 71.1609 78.2031 71.1609C77.9159 71.1609 77.6843 71.1327 77.5082 71.0762C77.3414 71.0198 77.221 70.9257 77.1469 70.794C77.082 70.6528 77.0403 70.5305 77.0218 70.427C77.0125 70.3141 77.0079 70.1495 77.0079 69.9331V62.8484H74.3393C74.0428 62.8484 73.8251 62.8155 73.6861 62.7496C73.5471 62.6743 73.4544 62.5614 73.4081 62.4109C73.3618 62.2604 73.3386 62.0628 73.3386 61.8181C73.3386 61.5735 73.3618 61.3807 73.4081 61.2395C73.4544 61.089 73.5332 60.9855 73.6444 60.929C73.8112 60.8444 74.0474 60.802 74.3532 60.802Z"/>
<path d="M89.2433 66.5601C89.2433 67.134 89.0996 67.5621 88.8124 67.8444C88.5344 68.1172 88.224 68.2536 87.8812 68.2536H84.5872C84.5872 68.5171 84.7401 68.7382 85.0459 68.9169C85.3516 69.0957 85.6574 69.1851 85.9632 69.1851C86.5006 69.1851 86.9222 69.1286 87.228 69.0157L87.3808 68.9593C87.6032 68.8558 87.7885 68.804 87.9368 68.804C88.2333 68.804 88.4881 69.0157 88.7012 69.4391C88.8217 69.6932 88.8819 69.9096 88.8819 70.0883C88.8819 70.9257 87.8951 71.3444 85.9215 71.3444C85.2358 71.3444 84.6243 71.2268 84.0869 70.9915C83.5587 70.7469 83.1464 70.427 82.8499 70.0319C82.2661 69.2698 81.9743 68.4183 81.9743 67.4774C81.9743 66.2919 82.3495 65.3464 83.1 64.6407C83.8598 63.9257 84.805 63.5682 85.9354 63.5682C87.2233 63.5682 88.1684 64.0292 88.7707 64.9512C89.0857 65.4405 89.2433 65.9768 89.2433 66.5601ZM86.3106 66.9694C86.6627 66.9694 86.8388 66.8188 86.8388 66.5177C86.8388 66.3013 86.7554 66.1273 86.5886 65.9956C86.4311 65.8639 86.1995 65.798 85.8937 65.798C85.5972 65.798 85.3007 65.925 85.0042 66.179C84.7077 66.4237 84.5594 66.6871 84.5594 66.9694H86.3106Z"/>
<path d="M92.5406 64.7113C92.9761 64.0433 93.4996 63.7093 94.1112 63.7093C95.0563 63.7093 95.7605 64.1186 96.2238 64.9371C96.3257 64.796 96.4461 64.6501 96.5851 64.4996C96.7334 64.3396 96.965 64.1703 97.2801 63.9915C97.5951 63.8034 97.9194 63.7093 98.253 63.7093C98.9942 63.7093 99.615 64.0009 100.115 64.5843C100.616 65.1582 100.866 66.1132 100.866 67.4492V69.919C100.866 70.1354 100.857 70.3 100.838 70.4129C100.829 70.5164 100.787 70.6387 100.713 70.7799C100.593 71.0339 100.236 71.1609 99.6428 71.1609C99.0591 71.1609 98.7024 71.0292 98.5726 70.7657C98.5078 70.6246 98.4661 70.5023 98.4476 70.3988C98.4383 70.2859 98.4337 70.1212 98.4337 69.9048V67.4351C98.4337 66.6165 98.1464 66.2073 97.5719 66.2073C97.2476 66.2073 97.0253 66.3155 96.9048 66.5319C96.7936 66.7483 96.738 67.054 96.738 67.4492V69.919C96.738 70.1448 96.7288 70.3094 96.7102 70.4129C96.701 70.5164 96.6593 70.6387 96.5851 70.7799C96.4554 71.0339 96.094 71.1609 95.501 71.1609C94.9173 71.1609 94.5606 71.0292 94.4308 70.7657C94.366 70.6246 94.3243 70.5023 94.3057 70.3988C94.2965 70.2859 94.2918 70.1212 94.2918 69.9048V67.4351C94.2918 66.6165 94.0046 66.2073 93.4301 66.2073C92.8742 66.2073 92.5962 66.6165 92.5962 67.4351V69.9331C92.5962 70.1495 92.5869 70.3141 92.5684 70.427C92.5591 70.5305 92.5175 70.6528 92.4433 70.794C92.3043 71.0386 91.943 71.1609 91.3592 71.1609C90.7755 71.1609 90.4188 71.0339 90.289 70.7799C90.2242 70.6387 90.1825 70.5164 90.1639 70.4129C90.1547 70.3094 90.15 70.1448 90.15 69.919V64.9512C90.15 64.7348 90.1547 64.5749 90.1639 64.4714C90.1825 64.3585 90.2288 64.2362 90.3029 64.1044C90.4419 63.8504 90.7708 63.7234 91.2897 63.7234C91.8086 63.7234 92.1468 63.8081 92.3043 63.9774C92.4619 64.1468 92.5406 64.3914 92.5406 64.7113Z"/>
<path d="M101.972 73.179V64.9371C101.972 64.7207 101.977 64.5608 101.986 64.4573C102.005 64.3538 102.046 64.2362 102.111 64.1044C102.241 63.8504 102.551 63.7234 103.042 63.7234C103.533 63.7234 103.862 63.7893 104.029 63.921C104.205 64.0433 104.307 64.2268 104.335 64.4714C104.687 63.9821 105.238 63.7375 105.989 63.7375C106.749 63.7375 107.467 64.0997 108.143 64.8242C108.819 65.5487 109.158 66.3907 109.158 67.3504C109.158 68.3101 108.819 69.1522 108.143 69.8766C107.476 70.6011 106.762 70.9633 106.003 70.9633C105.243 70.9633 104.692 70.7469 104.349 70.3141V73.1649C104.349 73.3813 104.339 73.5413 104.321 73.6448C104.312 73.7483 104.27 73.8659 104.196 73.9976C104.131 74.1387 104.015 74.2375 103.848 74.294C103.682 74.3504 103.455 74.3786 103.167 74.3786C102.88 74.3786 102.648 74.3504 102.472 74.294C102.306 74.2375 102.185 74.1434 102.111 74.0117C102.046 73.88 102.005 73.7624 101.986 73.6589C101.977 73.5554 101.972 73.3954 101.972 73.179ZM104.724 66.5319C104.511 66.7859 104.404 67.0634 104.404 67.3645C104.404 67.6656 104.511 67.9431 104.724 68.1972C104.946 68.4418 105.224 68.5641 105.558 68.5641C105.901 68.5641 106.188 68.4418 106.42 68.1972C106.661 67.9526 106.781 67.675 106.781 67.3645C106.781 67.054 106.67 66.7765 106.447 66.5319C106.225 66.2778 105.933 66.1508 105.572 66.1508C105.22 66.1508 104.937 66.2778 104.724 66.5319Z"/>
</mask>
<path d="M37.3235 76.2563C32.0179 67.9138 30.8387 57.5391 34.1334 48.1887L34.387 47.4692C36.9246 40.2674 42.0761 34.3222 48.7878 30.8496C56.9141 26.6451 66.4974 26.4882 74.7528 30.4246L76.4691 31.2429C83.2445 34.4735 88.6252 40.105 91.6001 47.0796C95.8278 56.9909 94.7046 68.4178 88.6313 77.2852L81.5799 87.5806C78.9345 91.443 77.2544 95.9011 76.6846 100.57L74.7853 116.133C74.0975 121.768 69.3818 126 63.7896 126C58.5136 126 53.9694 122.222 52.9278 116.97L49.4788 99.579C48.6771 95.5366 47.1346 91.683 44.9315 88.219L37.3235 76.2563Z" fill="#FFDF60"/>
<path d="M65.4916 110.12C64.9211 111.998 62.3117 112.022 61.7079 110.155L49.6729 72.9381C49.033 70.9595 51.4075 69.4147 52.9103 70.8317L55.9232 73.6725C56.841 74.5378 58.3089 74.3348 58.9653 73.2517L61.9624 68.3063C62.7378 67.027 64.5691 67.027 65.3444 68.3063L68.2748 73.1416C68.9526 74.2599 70.4855 74.4324 71.388 73.492L73.2947 71.5048C74.7497 69.9885 77.2287 71.4831 76.6142 73.5061L71.0529 91.8131L65.4916 110.12Z" fill="#FFF2B2"/>
<path d="M109.156 28.9069C109.313 29.1349 109.259 29.4492 109.034 29.6089L96.0223 38.8601C95.7978 39.0198 95.4883 38.9644 95.331 38.7363C95.1738 38.5083 95.2283 38.194 95.4529 38.0344L108.465 28.7831C108.689 28.6235 108.999 28.6789 109.156 28.9069Z" fill="#FFDF60"/>
<path d="M81.9826 24.8056C81.7289 24.7001 81.6075 24.4058 81.7114 24.1482L87.7324 9.22278C87.8364 8.96518 88.1262 8.8419 88.3799 8.94741C88.6336 9.05293 88.755 9.34729 88.6511 9.60489L82.6301 24.5303C82.5262 24.7879 82.2363 24.9112 81.9826 24.8056Z" fill="#FFDF60"/>
<path d="M62.1643 18.1371C61.8901 18.1371 61.6679 17.9114 61.6679 17.6331V1.50403C61.6679 1.22566 61.8901 1 62.1643 1C62.4384 1 62.6607 1.22566 62.6607 1.50403V17.6331C62.6607 17.9114 62.4384 18.1371 62.1643 18.1371Z" fill="#FFDF60"/>
<path d="M36.5383 9.35236C36.7634 9.19339 37.0727 9.24976 37.2293 9.47828L41.7648 16.0984L46.3004 22.7185C46.457 22.947 46.4014 23.2611 46.1764 23.4201C45.9513 23.5791 45.642 23.5227 45.4854 23.2942L36.4143 10.054C36.2577 9.82545 36.3133 9.51133 36.5383 9.35236Z" fill="#FFDF60"/>
<path d="M31.805 38.4429C31.6477 38.6709 31.3382 38.7263 31.1136 38.5667L18.1021 29.3154C17.8775 29.1558 17.8229 28.8415 17.9802 28.6134C18.1374 28.3854 18.4469 28.33 18.6715 28.4897L31.6831 37.7409C31.9076 37.9006 31.9622 38.2149 31.805 38.4429Z" fill="#FFDF60"/>
<path d="M47.9747 105.839C47.9747 104.168 49.3081 102.815 50.953 102.815H76.7649C78.4098 102.815 79.7432 104.168 79.7432 105.839C79.7432 107.509 78.4098 108.863 76.7649 108.863H50.953C49.3081 108.863 47.9747 107.509 47.9747 105.839Z" fill="#F9FFAB"/>
<path d="M47.7692 110.879C47.7692 109.209 49.1026 107.855 50.7475 107.855H76.5594C78.2043 107.855 79.5377 109.209 79.5377 110.879C79.5377 112.549 78.2043 113.903 76.5594 113.903H50.7475C49.1026 113.903 47.7692 112.549 47.7692 110.879Z" fill="#F9FFAB"/>
<path d="M47.7692 115.919C47.7692 114.249 49.1026 112.895 50.7475 112.895H76.5594C78.2043 112.895 79.5377 114.249 79.5377 115.919C79.5377 117.59 78.2043 118.944 76.5594 118.944H50.7475C49.1026 118.944 47.7692 117.59 47.7692 115.919Z" fill="#F9FFAB"/>
<path d="M4.17557 58.5601L5.37327 55.7701C8.85154 47.6675 19.2722 45.6636 25.4273 51.9136C29.3067 55.8527 35.2801 56.7211 40.0921 54.0454L48.5945 49.3175C51.387 47.7647 54.4432 46.7614 57.6024 46.3605L64.3815 45.5C69.7518 44.8184 75.1909 46.0077 79.809 48.8733C86.5297 53.0437 94.8424 53.5842 102.032 50.3182L106.73 48.184C108.496 47.3819 110.408 46.9673 112.342 46.9673C123.134 46.9673 129.715 59.0177 124 68.3125L120.957 73.2616C119.573 75.5121 118.84 78.1119 118.84 80.7649V81.4271C118.84 83.2915 118.393 85.1278 117.538 86.7776C115.336 91.025 110.766 93.4349 106.078 92.8207L102.186 92.3108C99.7499 91.9916 97.4108 91.1387 95.331 89.8112L92.6889 88.1249C85.8533 83.762 76.9888 84.5778 71.0372 90.1176C63.5338 97.1017 51.8157 96.3476 45.2408 88.4574L43.7978 86.7258C38.7127 80.6235 30.5839 78.103 23.0089 80.2799L15.8949 82.3243C11.7408 83.5181 7.27729 82.2754 4.30375 79.0971C1.45783 76.0553 0.416427 71.7078 1.56847 67.6785L4.17557 58.5601Z" fill="white"/>
<path d="M23.819 68.4512L24.0692 68.2678C24.3842 68.0796 24.6066 67.9855 24.7363 67.9855C25.0236 67.9855 25.334 68.2489 25.6676 68.7758C25.8714 69.1051 25.9733 69.3686 25.9733 69.5661C25.9733 69.7637 25.9085 69.9284 25.7787 70.0601C25.6583 70.1918 25.5147 70.3094 25.3479 70.4129C25.1811 70.5164 25.0189 70.6152 24.8614 70.7093C24.7132 70.8034 24.4028 70.9257 23.9302 71.0762C23.4577 71.2267 22.999 71.302 22.5543 71.302C22.1188 71.302 21.674 71.2456 21.22 71.1327C20.7752 71.0104 20.3119 70.8128 19.8301 70.5399C19.3576 70.2577 18.9313 69.919 18.5514 69.5238C18.1715 69.1192 17.8565 68.6065 17.6063 67.9855C17.3654 67.3551 17.245 66.673 17.245 65.9391C17.245 65.2053 17.3654 64.5419 17.6063 63.9492C17.8472 63.3471 18.153 62.8531 18.5236 62.4673C18.9035 62.0722 19.3344 61.7429 19.8162 61.4794C20.7243 60.9714 21.6369 60.7173 22.5543 60.7173C22.9897 60.7173 23.4299 60.7879 23.8746 60.929C24.3286 61.0608 24.6715 61.1972 24.9031 61.3383L25.2367 61.5359C25.4035 61.6394 25.5332 61.7241 25.6259 61.7899C25.8668 61.9875 25.9872 62.2133 25.9872 62.4673C25.9872 62.712 25.8899 62.9707 25.6954 63.2436C25.334 63.7516 25.0097 64.0057 24.7224 64.0057C24.5557 64.0057 24.3194 63.9022 24.0136 63.6952C23.6244 63.3753 23.1056 63.2153 22.457 63.2153C21.8547 63.2153 21.2617 63.427 20.6779 63.8504C20.4 64.0574 20.1683 64.3491 19.983 64.7254C19.7977 65.1017 19.705 65.5298 19.705 66.0097C19.705 66.4801 19.7977 66.9035 19.983 67.2799C20.1683 67.6562 20.4046 67.9526 20.6918 68.169C21.257 68.5829 21.8454 68.7899 22.457 68.7899C22.7442 68.7899 23.0129 68.7523 23.2631 68.677C23.5225 68.6018 23.7078 68.5265 23.819 68.4512Z" fill="#FFDF60"/>
<path d="M26.6781 67.4492C26.6781 66.3202 27.0673 65.3887 27.8456 64.6548C28.624 63.921 29.5135 63.554 30.5142 63.554C31.5149 63.554 32.3998 63.921 33.1688 64.6548C33.9379 65.3793 34.3224 66.306 34.3224 67.4351C34.3224 68.216 34.1232 68.9122 33.7248 69.5238C33.3263 70.126 32.8399 70.5729 32.2654 70.8645C31.7002 71.1468 31.1118 71.2879 30.5003 71.2879C29.8887 71.2879 29.2957 71.1374 28.7212 70.8363C28.1468 70.5258 27.6603 70.0742 27.2619 69.4815C26.8727 68.8793 26.6781 68.2019 26.6781 67.4492ZM29.583 68.4653C29.8795 68.6911 30.1806 68.804 30.4864 68.804C30.7921 68.804 31.0979 68.6864 31.4037 68.4512C31.7095 68.216 31.8624 67.8679 31.8624 67.4069C31.8624 66.9458 31.7187 66.6024 31.4315 66.3766C31.1442 66.1508 30.8338 66.0379 30.5003 66.0379C30.1667 66.0379 29.8563 66.1555 29.5691 66.3907C29.2818 66.6259 29.1382 66.9741 29.1382 67.4351C29.1382 67.8867 29.2865 68.2301 29.583 68.4653Z" fill="#FFDF60"/>
<path d="M37.611 64.7113C38.0465 64.0433 38.57 63.7093 39.1815 63.7093C40.1266 63.7093 40.8308 64.1186 41.2941 64.9371C41.396 64.796 41.5165 64.6501 41.6555 64.4996C41.8037 64.3396 42.0354 64.1703 42.3504 63.9915C42.6655 63.8034 42.9898 63.7093 43.3233 63.7093C44.0646 63.7093 44.6854 64.0009 45.1858 64.5843C45.6861 65.1582 45.9363 66.1132 45.9363 67.4492V69.919C45.9363 70.1354 45.927 70.3 45.9085 70.4129C45.8992 70.5164 45.8575 70.6387 45.7834 70.7799C45.6629 71.0339 45.3062 71.1609 44.7132 71.1609C44.1295 71.1609 43.7727 71.0292 43.643 70.7657C43.5781 70.6246 43.5364 70.5023 43.5179 70.3988C43.5086 70.2859 43.504 70.1212 43.504 69.9048V67.4351C43.504 66.6165 43.2168 66.2073 42.6423 66.2073C42.318 66.2073 42.0956 66.3155 41.9752 66.5319C41.864 66.7483 41.8084 67.054 41.8084 67.4492V69.919C41.8084 70.1448 41.7991 70.3094 41.7806 70.4129C41.7713 70.5164 41.7296 70.6387 41.6555 70.7799C41.5258 71.0339 41.1644 71.1609 40.5714 71.1609C39.9876 71.1609 39.6309 71.0292 39.5012 70.7657C39.4363 70.6246 39.3946 70.5023 39.3761 70.3988C39.3668 70.2859 39.3622 70.1212 39.3622 69.9048V67.4351C39.3622 66.6165 39.075 66.2073 38.5005 66.2073C37.9445 66.2073 37.6666 66.6165 37.6666 67.4351V69.9331C37.6666 70.1495 37.6573 70.3141 37.6388 70.427C37.6295 70.5305 37.5878 70.6528 37.5137 70.794C37.3747 71.0386 37.0133 71.1609 36.4296 71.1609C35.8458 71.1609 35.4891 71.0339 35.3594 70.7799C35.2945 70.6387 35.2528 70.5164 35.2343 70.4129C35.225 70.3094 35.2204 70.1448 35.2204 69.919V64.9512C35.2204 64.7348 35.225 64.5749 35.2343 64.4714C35.2528 64.3585 35.2992 64.2362 35.3733 64.1044C35.5123 63.8504 35.8412 63.7234 36.3601 63.7234C36.879 63.7234 37.2172 63.8081 37.3747 63.9774C37.5322 64.1468 37.611 64.3914 37.611 64.7113Z" fill="#FFDF60"/>
<path d="M51.0518 63.7375C51.6911 63.7375 52.0664 63.9163 52.1775 64.2738C52.2331 64.4526 52.2609 64.6878 52.2609 64.9795C52.2609 65.2711 52.2285 65.5063 52.1636 65.6851C52.1081 65.8544 52.0154 65.9768 51.8857 66.052C51.6911 66.1649 51.4085 66.2214 51.0379 66.2214L50.1483 66.1649V69.9472C50.1483 70.3047 50.102 70.5729 50.0094 70.7516C49.926 70.921 49.7916 71.0339 49.6063 71.0903C49.4302 71.1468 49.1986 71.175 48.9114 71.175C48.6241 71.175 48.3925 71.1468 48.2164 71.0903C48.0496 71.0245 47.9292 70.9257 47.8551 70.794C47.7809 70.6528 47.7346 70.5258 47.7161 70.4129C47.7068 70.3 47.7022 70.1354 47.7022 69.919V66.179H47.2018C46.9609 66.1602 46.7895 66.1038 46.6876 66.0097C46.5115 65.8309 46.4235 65.4875 46.4235 64.9795C46.4235 64.2079 46.6968 63.8222 47.2435 63.8222H47.7022V63.0742C47.7022 62.3497 47.957 61.6958 48.4666 61.1125C48.9762 60.5198 49.7128 60.2234 50.6765 60.2234C50.8896 60.2234 51.0471 60.2328 51.149 60.2516C51.2602 60.261 51.3853 60.3034 51.5243 60.3786C51.7745 60.501 51.8996 60.8632 51.8996 61.4653C51.8996 61.9169 51.8208 62.2415 51.6633 62.4391C51.5336 62.5897 51.3297 62.6743 51.0518 62.6932C50.9684 62.6932 50.8386 62.6932 50.6626 62.6932C50.3198 62.6932 50.1483 62.8108 50.1483 63.046V63.8222L51.0518 63.7375Z" fill="#FFDF60"/>
<path d="M52.5481 67.4492C52.5481 66.3202 52.9373 65.3887 53.7156 64.6548C54.494 63.921 55.3835 63.554 56.3842 63.554C57.3849 63.554 58.2698 63.921 59.0388 64.6548C59.8079 65.3793 60.1924 66.306 60.1924 67.4351C60.1924 68.216 59.9932 68.9122 59.5948 69.5238C59.1963 70.126 58.7099 70.5729 58.1354 70.8645C57.5702 71.1468 56.9818 71.2879 56.3703 71.2879C55.7587 71.2879 55.1657 71.1374 54.5912 70.8363C54.0168 70.5258 53.5303 70.0742 53.1319 69.4815C52.7427 68.8793 52.5481 68.2019 52.5481 67.4492ZM55.453 68.4653C55.7495 68.6911 56.0506 68.804 56.3564 68.804C56.6622 68.804 56.9679 68.6864 57.2737 68.4512C57.5795 68.216 57.7324 67.8679 57.7324 67.4069C57.7324 66.9458 57.5887 66.6024 57.3015 66.3766C57.0143 66.1508 56.7038 66.0379 56.3703 66.0379C56.0367 66.0379 55.7263 66.1555 55.4391 66.3907C55.1518 66.6259 55.0082 66.9741 55.0082 67.4351C55.0082 67.8867 55.1565 68.2301 55.453 68.4653Z" fill="#FFDF60"/>
<path d="M66.0661 63.8081C66.2422 63.8645 66.3858 63.9633 66.497 64.1044C66.6174 64.2362 66.6777 64.4526 66.6777 64.7536C66.6777 65.0547 66.5896 65.384 66.4136 65.7415C66.2375 66.0991 65.9827 66.2778 65.6492 66.2778C65.4824 66.2778 65.3202 66.2402 65.1627 66.1649C65.0145 66.0897 64.8153 66.052 64.5651 66.052C64.3149 66.052 64.0786 66.1414 63.8562 66.3202C63.6431 66.4989 63.5366 66.7153 63.5366 66.9694V69.9331C63.5366 70.1495 63.5273 70.3141 63.5088 70.427C63.4995 70.5305 63.4578 70.6528 63.3837 70.794C63.2447 71.0386 62.8833 71.1609 62.2996 71.1609C61.8548 71.1609 61.5352 71.0809 61.3406 70.921C61.1923 70.7893 61.1089 70.587 61.0904 70.3141C61.0904 70.22 61.0904 70.0836 61.0904 69.9048V64.9512C61.0904 64.7348 61.095 64.5749 61.1043 64.4714C61.1228 64.3585 61.1645 64.2362 61.2294 64.1044C61.3591 63.8504 61.7205 63.7234 62.3135 63.7234C62.8694 63.7234 63.2169 63.8316 63.3559 64.048C63.4578 64.1985 63.5088 64.3538 63.5088 64.5137C63.5551 64.4479 63.62 64.3679 63.7034 64.2738C63.796 64.1797 63.986 64.0527 64.2732 63.8928C64.5604 63.7328 64.8106 63.6528 65.0237 63.6528C65.2461 63.6528 65.4314 63.6669 65.5797 63.6952C65.7279 63.714 65.8901 63.7516 66.0661 63.8081Z" fill="#FFDF60"/>
<path d="M71.6955 66.2214L70.7921 66.1649V68.1125C70.7921 68.3665 70.8292 68.55 70.9033 68.6629C70.9867 68.7758 71.1349 68.8323 71.3481 68.8323C71.5704 68.8323 71.7372 68.8417 71.8484 68.8605C71.9689 68.8699 72.094 68.9122 72.2237 68.9875C72.4368 69.1098 72.5433 69.425 72.5433 69.9331C72.5433 70.5258 72.4136 70.888 72.1542 71.0198C72.0152 71.0856 71.8901 71.128 71.7789 71.1468C71.677 71.1562 71.5241 71.1609 71.3203 71.1609C70.3566 71.1609 69.6246 70.9398 69.1243 70.4976C68.6239 70.0554 68.3737 69.3074 68.3737 68.2536V66.1649C68.1977 66.1932 68.0077 66.2073 67.8039 66.2073C67.6001 66.2073 67.4286 66.1273 67.2896 65.9673C67.1599 65.8074 67.0951 65.5346 67.0951 65.1488C67.0951 64.7631 67.1182 64.4855 67.1646 64.3161C67.2109 64.1374 67.2758 64.0104 67.3591 63.9351C67.5074 63.8128 67.6927 63.7516 67.9151 63.7516L68.3737 63.8081V62.3544C68.3737 62.138 68.3784 61.9781 68.3876 61.8746C68.4062 61.7711 68.4525 61.6582 68.5266 61.5359C68.6471 61.3007 69.0038 61.1831 69.5968 61.1831C70.2269 61.1831 70.6022 61.3571 70.7226 61.7052C70.7689 61.8558 70.7921 62.0957 70.7921 62.425V63.8081C71.1998 63.7704 71.5056 63.7516 71.7094 63.7516C71.9225 63.7516 72.0801 63.761 72.182 63.7798C72.2932 63.7893 72.4183 63.8316 72.5573 63.9069C72.7982 64.0292 72.9186 64.3914 72.9186 64.9936C72.9186 65.5863 72.7935 65.9485 72.5433 66.0803C72.4044 66.1461 72.2793 66.1884 72.1681 66.2073C72.0662 66.2167 71.9086 66.2214 71.6955 66.2214Z" fill="#FFDF60"/>
<path d="M74.3532 60.802H82.0809C82.3774 60.802 82.5951 60.8397 82.7341 60.9149C82.8731 60.9808 82.9658 61.089 83.0121 61.2395C83.0584 61.3901 83.0816 61.5876 83.0816 61.8323C83.0816 62.0769 83.0584 62.2745 83.0121 62.425C82.9658 62.5661 82.887 62.6649 82.7758 62.7214C82.609 62.8061 82.3727 62.8484 82.067 62.8484H79.4123V69.9472C79.4123 70.1636 79.4031 70.3235 79.3845 70.427C79.3753 70.5305 79.3336 70.6528 79.2595 70.794C79.1946 70.9257 79.0741 71.0198 78.8981 71.0762C78.722 71.1327 78.4904 71.1609 78.2031 71.1609C77.9159 71.1609 77.6843 71.1327 77.5082 71.0762C77.3414 71.0198 77.221 70.9257 77.1469 70.794C77.082 70.6528 77.0403 70.5305 77.0218 70.427C77.0125 70.3141 77.0079 70.1495 77.0079 69.9331V62.8484H74.3393C74.0428 62.8484 73.8251 62.8155 73.6861 62.7496C73.5471 62.6743 73.4544 62.5614 73.4081 62.4109C73.3618 62.2604 73.3386 62.0628 73.3386 61.8181C73.3386 61.5735 73.3618 61.3807 73.4081 61.2395C73.4544 61.089 73.5332 60.9855 73.6444 60.929C73.8112 60.8444 74.0474 60.802 74.3532 60.802Z" fill="#FFDF60"/>
<path d="M89.2433 66.5601C89.2433 67.134 89.0996 67.5621 88.8124 67.8444C88.5344 68.1172 88.224 68.2536 87.8812 68.2536H84.5872C84.5872 68.5171 84.7401 68.7382 85.0459 68.9169C85.3516 69.0957 85.6574 69.1851 85.9632 69.1851C86.5006 69.1851 86.9222 69.1286 87.228 69.0157L87.3808 68.9593C87.6032 68.8558 87.7885 68.804 87.9368 68.804C88.2333 68.804 88.4881 69.0157 88.7012 69.4391C88.8217 69.6932 88.8819 69.9096 88.8819 70.0883C88.8819 70.9257 87.8951 71.3444 85.9215 71.3444C85.2358 71.3444 84.6243 71.2268 84.0869 70.9915C83.5587 70.7469 83.1464 70.427 82.8499 70.0319C82.2661 69.2698 81.9743 68.4183 81.9743 67.4774C81.9743 66.2919 82.3495 65.3464 83.1 64.6407C83.8598 63.9257 84.805 63.5682 85.9354 63.5682C87.2233 63.5682 88.1684 64.0292 88.7707 64.9512C89.0857 65.4405 89.2433 65.9768 89.2433 66.5601ZM86.3106 66.9694C86.6627 66.9694 86.8388 66.8188 86.8388 66.5177C86.8388 66.3013 86.7554 66.1273 86.5886 65.9956C86.4311 65.8639 86.1995 65.798 85.8937 65.798C85.5972 65.798 85.3007 65.925 85.0042 66.179C84.7077 66.4237 84.5594 66.6871 84.5594 66.9694H86.3106Z" fill="#FFDF60"/>
<path d="M92.5406 64.7113C92.9761 64.0433 93.4996 63.7093 94.1112 63.7093C95.0563 63.7093 95.7605 64.1186 96.2238 64.9371C96.3257 64.796 96.4461 64.6501 96.5851 64.4996C96.7334 64.3396 96.965 64.1703 97.2801 63.9915C97.5951 63.8034 97.9194 63.7093 98.253 63.7093C98.9942 63.7093 99.615 64.0009 100.115 64.5843C100.616 65.1582 100.866 66.1132 100.866 67.4492V69.919C100.866 70.1354 100.857 70.3 100.838 70.4129C100.829 70.5164 100.787 70.6387 100.713 70.7799C100.593 71.0339 100.236 71.1609 99.6428 71.1609C99.0591 71.1609 98.7024 71.0292 98.5726 70.7657C98.5078 70.6246 98.4661 70.5023 98.4476 70.3988C98.4383 70.2859 98.4337 70.1212 98.4337 69.9048V67.4351C98.4337 66.6165 98.1464 66.2073 97.5719 66.2073C97.2476 66.2073 97.0253 66.3155 96.9048 66.5319C96.7936 66.7483 96.738 67.054 96.738 67.4492V69.919C96.738 70.1448 96.7288 70.3094 96.7102 70.4129C96.701 70.5164 96.6593 70.6387 96.5851 70.7799C96.4554 71.0339 96.094 71.1609 95.501 71.1609C94.9173 71.1609 94.5606 71.0292 94.4308 70.7657C94.366 70.6246 94.3243 70.5023 94.3057 70.3988C94.2965 70.2859 94.2918 70.1212 94.2918 69.9048V67.4351C94.2918 66.6165 94.0046 66.2073 93.4301 66.2073C92.8742 66.2073 92.5962 66.6165 92.5962 67.4351V69.9331C92.5962 70.1495 92.5869 70.3141 92.5684 70.427C92.5591 70.5305 92.5175 70.6528 92.4433 70.794C92.3043 71.0386 91.943 71.1609 91.3592 71.1609C90.7755 71.1609 90.4188 71.0339 90.289 70.7799C90.2242 70.6387 90.1825 70.5164 90.1639 70.4129C90.1547 70.3094 90.15 70.1448 90.15 69.919V64.9512C90.15 64.7348 90.1547 64.5749 90.1639 64.4714C90.1825 64.3585 90.2288 64.2362 90.3029 64.1044C90.4419 63.8504 90.7708 63.7234 91.2897 63.7234C91.8086 63.7234 92.1468 63.8081 92.3043 63.9774C92.4619 64.1468 92.5406 64.3914 92.5406 64.7113Z" fill="#FFDF60"/>
<path d="M101.972 73.179V64.9371C101.972 64.7207 101.977 64.5608 101.986 64.4573C102.005 64.3538 102.046 64.2362 102.111 64.1044C102.241 63.8504 102.551 63.7234 103.042 63.7234C103.533 63.7234 103.862 63.7893 104.029 63.921C104.205 64.0433 104.307 64.2268 104.335 64.4714C104.687 63.9821 105.238 63.7375 105.989 63.7375C106.749 63.7375 107.467 64.0997 108.143 64.8242C108.819 65.5487 109.158 66.3907 109.158 67.3504C109.158 68.3101 108.819 69.1522 108.143 69.8766C107.476 70.6011 106.762 70.9633 106.003 70.9633C105.243 70.9633 104.692 70.7469 104.349 70.3141V73.1649C104.349 73.3813 104.339 73.5413 104.321 73.6448C104.312 73.7483 104.27 73.8659 104.196 73.9976C104.131 74.1387 104.015 74.2375 103.848 74.294C103.682 74.3504 103.455 74.3786 103.167 74.3786C102.88 74.3786 102.648 74.3504 102.472 74.294C102.306 74.2375 102.185 74.1434 102.111 74.0117C102.046 73.88 102.005 73.7624 101.986 73.6589C101.977 73.5554 101.972 73.3954 101.972 73.179ZM104.724 66.5319C104.511 66.7859 104.404 67.0634 104.404 67.3645C104.404 67.6656 104.511 67.9431 104.724 68.1972C104.946 68.4418 105.224 68.5641 105.558 68.5641C105.901 68.5641 106.188 68.4418 106.42 68.1972C106.661 67.9526 106.781 67.675 106.781 67.3645C106.781 67.054 106.67 66.7765 106.447 66.5319C106.225 66.2778 105.933 66.1508 105.572 66.1508C105.22 66.1508 104.937 66.2778 104.724 66.5319Z" fill="#FFDF60"/>
<path d="M37.3235 76.2563C32.0179 67.9138 30.8387 57.5391 34.1334 48.1887L34.387 47.4692C36.9246 40.2674 42.0761 34.3222 48.7878 30.8496C56.9141 26.6451 66.4974 26.4882 74.7528 30.4246L76.4691 31.2429C83.2445 34.4735 88.6252 40.105 91.6001 47.0796C95.8278 56.9909 94.7046 68.4178 88.6313 77.2852L81.5799 87.5806C78.9345 91.443 77.2544 95.9011 76.6846 100.57L74.7853 116.133C74.0975 121.768 69.3818 126 63.7896 126C58.5136 126 53.9694 122.222 52.9278 116.97L49.4788 99.579C48.6771 95.5366 47.1346 91.683 44.9315 88.219L37.3235 76.2563Z" stroke="black" stroke-width="2" mask="url(#path-1-outside-1_608_51)"/>
<path d="M65.4916 110.12C64.9211 111.998 62.3117 112.022 61.7079 110.155L49.6729 72.9381C49.033 70.9595 51.4075 69.4147 52.9103 70.8317L55.9232 73.6725C56.841 74.5378 58.3089 74.3348 58.9653 73.2517L61.9624 68.3063C62.7378 67.027 64.5691 67.027 65.3444 68.3063L68.2748 73.1416C68.9526 74.2599 70.4855 74.4324 71.388 73.492L73.2947 71.5048C74.7497 69.9885 77.2287 71.4831 76.6142 73.5061L71.0529 91.8131L65.4916 110.12Z" stroke="black" stroke-width="2" mask="url(#path-1-outside-1_608_51)"/>
<path d="M109.156 28.9069C109.313 29.1349 109.259 29.4492 109.034 29.6089L96.0223 38.8601C95.7978 39.0198 95.4883 38.9644 95.331 38.7363C95.1738 38.5083 95.2283 38.194 95.4529 38.0344L108.465 28.7831C108.689 28.6235 108.999 28.6789 109.156 28.9069Z" stroke="black" stroke-width="2" mask="url(#path-1-outside-1_608_51)"/>
<path d="M81.9826 24.8056C81.7289 24.7001 81.6075 24.4058 81.7114 24.1482L87.7324 9.22278C87.8364 8.96518 88.1262 8.8419 88.3799 8.94741C88.6336 9.05293 88.755 9.34729 88.6511 9.60489L82.6301 24.5303C82.5262 24.7879 82.2363 24.9112 81.9826 24.8056Z" stroke="black" stroke-width="2" mask="url(#path-1-outside-1_608_51)"/>
<path d="M62.1643 18.1371C61.8901 18.1371 61.6679 17.9114 61.6679 17.6331V1.50403C61.6679 1.22566 61.8901 1 62.1643 1C62.4384 1 62.6607 1.22566 62.6607 1.50403V17.6331C62.6607 17.9114 62.4384 18.1371 62.1643 18.1371Z" stroke="black" stroke-width="2" mask="url(#path-1-outside-1_608_51)"/>
<path d="M36.5383 9.35236C36.7634 9.19339 37.0727 9.24976 37.2293 9.47828L41.7648 16.0984L46.3004 22.7185C46.457 22.947 46.4014 23.2611 46.1764 23.4201C45.9513 23.5791 45.642 23.5227 45.4854 23.2942L36.4143 10.054C36.2577 9.82545 36.3133 9.51133 36.5383 9.35236Z" stroke="black" stroke-width="2" mask="url(#path-1-outside-1_608_51)"/>
<path d="M31.805 38.4429C31.6477 38.6709 31.3382 38.7263 31.1136 38.5667L18.1021 29.3154C17.8775 29.1558 17.8229 28.8415 17.9802 28.6134C18.1374 28.3854 18.4469 28.33 18.6715 28.4897L31.6831 37.7409C31.9076 37.9006 31.9622 38.2149 31.805 38.4429Z" stroke="black" stroke-width="2" mask="url(#path-1-outside-1_608_51)"/>
<path d="M47.9747 105.839C47.9747 104.168 49.3081 102.815 50.953 102.815H76.7649C78.4098 102.815 79.7432 104.168 79.7432 105.839C79.7432 107.509 78.4098 108.863 76.7649 108.863H50.953C49.3081 108.863 47.9747 107.509 47.9747 105.839Z" stroke="black" stroke-width="2" mask="url(#path-1-outside-1_608_51)"/>
<path d="M47.7692 110.879C47.7692 109.209 49.1026 107.855 50.7475 107.855H76.5594C78.2043 107.855 79.5377 109.209 79.5377 110.879C79.5377 112.549 78.2043 113.903 76.5594 113.903H50.7475C49.1026 113.903 47.7692 112.549 47.7692 110.879Z" stroke="black" stroke-width="2" mask="url(#path-1-outside-1_608_51)"/>
<path d="M47.7692 115.919C47.7692 114.249 49.1026 112.895 50.7475 112.895H76.5594C78.2043 112.895 79.5377 114.249 79.5377 115.919C79.5377 117.59 78.2043 118.944 76.5594 118.944H50.7475C49.1026 118.944 47.7692 117.59 47.7692 115.919Z" stroke="black" stroke-width="2" mask="url(#path-1-outside-1_608_51)"/>
<path d="M4.17557 58.5601L5.37327 55.7701C8.85154 47.6675 19.2722 45.6636 25.4273 51.9136C29.3067 55.8527 35.2801 56.7211 40.0921 54.0454L48.5945 49.3175C51.387 47.7647 54.4432 46.7614 57.6024 46.3605L64.3815 45.5C69.7518 44.8184 75.1909 46.0077 79.809 48.8733C86.5297 53.0437 94.8424 53.5842 102.032 50.3182L106.73 48.184C108.496 47.3819 110.408 46.9673 112.342 46.9673C123.134 46.9673 129.715 59.0177 124 68.3125L120.957 73.2616C119.573 75.5121 118.84 78.1119 118.84 80.7649V81.4271C118.84 83.2915 118.393 85.1278 117.538 86.7776C115.336 91.025 110.766 93.4349 106.078 92.8207L102.186 92.3108C99.7499 91.9916 97.4108 91.1387 95.331 89.8112L92.6889 88.1249C85.8533 83.762 76.9888 84.5778 71.0372 90.1176C63.5338 97.1017 51.8157 96.3476 45.2408 88.4574L43.7978 86.7258C38.7127 80.6235 30.5839 78.103 23.0089 80.2799L15.8949 82.3243C11.7408 83.5181 7.27729 82.2754 4.30375 79.0971C1.45783 76.0553 0.416427 71.7078 1.56847 67.6785L4.17557 58.5601Z" stroke="black" stroke-width="2" mask="url(#path-1-outside-1_608_51)"/>
<path d="M23.819 68.4512L24.0692 68.2678C24.3842 68.0796 24.6066 67.9855 24.7363 67.9855C25.0236 67.9855 25.334 68.2489 25.6676 68.7758C25.8714 69.1051 25.9733 69.3686 25.9733 69.5661C25.9733 69.7637 25.9085 69.9284 25.7787 70.0601C25.6583 70.1918 25.5147 70.3094 25.3479 70.4129C25.1811 70.5164 25.0189 70.6152 24.8614 70.7093C24.7132 70.8034 24.4028 70.9257 23.9302 71.0762C23.4577 71.2267 22.999 71.302 22.5543 71.302C22.1188 71.302 21.674 71.2456 21.22 71.1327C20.7752 71.0104 20.3119 70.8128 19.8301 70.5399C19.3576 70.2577 18.9313 69.919 18.5514 69.5238C18.1715 69.1192 17.8565 68.6065 17.6063 67.9855C17.3654 67.3551 17.245 66.673 17.245 65.9391C17.245 65.2053 17.3654 64.5419 17.6063 63.9492C17.8472 63.3471 18.153 62.8531 18.5236 62.4673C18.9035 62.0722 19.3344 61.7429 19.8162 61.4794C20.7243 60.9714 21.6369 60.7173 22.5543 60.7173C22.9897 60.7173 23.4299 60.7879 23.8746 60.929C24.3286 61.0608 24.6715 61.1972 24.9031 61.3383L25.2367 61.5359C25.4035 61.6394 25.5332 61.7241 25.6259 61.7899C25.8668 61.9875 25.9872 62.2133 25.9872 62.4673C25.9872 62.712 25.8899 62.9707 25.6954 63.2436C25.334 63.7516 25.0097 64.0057 24.7224 64.0057C24.5557 64.0057 24.3194 63.9022 24.0136 63.6952C23.6244 63.3753 23.1056 63.2153 22.457 63.2153C21.8547 63.2153 21.2617 63.427 20.6779 63.8504C20.4 64.0574 20.1683 64.3491 19.983 64.7254C19.7977 65.1017 19.705 65.5298 19.705 66.0097C19.705 66.4801 19.7977 66.9035 19.983 67.2799C20.1683 67.6562 20.4046 67.9526 20.6918 68.169C21.257 68.5829 21.8454 68.7899 22.457 68.7899C22.7442 68.7899 23.0129 68.7523 23.2631 68.677C23.5225 68.6018 23.7078 68.5265 23.819 68.4512Z" stroke="black" stroke-width="2" mask="url(#path-1-outside-1_608_51)"/>
<path d="M26.6781 67.4492C26.6781 66.3202 27.0673 65.3887 27.8456 64.6548C28.624 63.921 29.5135 63.554 30.5142 63.554C31.5149 63.554 32.3998 63.921 33.1688 64.6548C33.9379 65.3793 34.3224 66.306 34.3224 67.4351C34.3224 68.216 34.1232 68.9122 33.7248 69.5238C33.3263 70.126 32.8399 70.5729 32.2654 70.8645C31.7002 71.1468 31.1118 71.2879 30.5003 71.2879C29.8887 71.2879 29.2957 71.1374 28.7212 70.8363C28.1468 70.5258 27.6603 70.0742 27.2619 69.4815C26.8727 68.8793 26.6781 68.2019 26.6781 67.4492ZM29.583 68.4653C29.8795 68.6911 30.1806 68.804 30.4864 68.804C30.7921 68.804 31.0979 68.6864 31.4037 68.4512C31.7095 68.216 31.8624 67.8679 31.8624 67.4069C31.8624 66.9458 31.7187 66.6024 31.4315 66.3766C31.1442 66.1508 30.8338 66.0379 30.5003 66.0379C30.1667 66.0379 29.8563 66.1555 29.5691 66.3907C29.2818 66.6259 29.1382 66.9741 29.1382 67.4351C29.1382 67.8867 29.2865 68.2301 29.583 68.4653Z" stroke="black" stroke-width="2" mask="url(#path-1-outside-1_608_51)"/>
<path d="M37.611 64.7113C38.0465 64.0433 38.57 63.7093 39.1815 63.7093C40.1266 63.7093 40.8308 64.1186 41.2941 64.9371C41.396 64.796 41.5165 64.6501 41.6555 64.4996C41.8037 64.3396 42.0354 64.1703 42.3504 63.9915C42.6655 63.8034 42.9898 63.7093 43.3233 63.7093C44.0646 63.7093 44.6854 64.0009 45.1858 64.5843C45.6861 65.1582 45.9363 66.1132 45.9363 67.4492V69.919C45.9363 70.1354 45.927 70.3 45.9085 70.4129C45.8992 70.5164 45.8575 70.6387 45.7834 70.7799C45.6629 71.0339 45.3062 71.1609 44.7132 71.1609C44.1295 71.1609 43.7727 71.0292 43.643 70.7657C43.5781 70.6246 43.5364 70.5023 43.5179 70.3988C43.5086 70.2859 43.504 70.1212 43.504 69.9048V67.4351C43.504 66.6165 43.2168 66.2073 42.6423 66.2073C42.318 66.2073 42.0956 66.3155 41.9752 66.5319C41.864 66.7483 41.8084 67.054 41.8084 67.4492V69.919C41.8084 70.1448 41.7991 70.3094 41.7806 70.4129C41.7713 70.5164 41.7296 70.6387 41.6555 70.7799C41.5258 71.0339 41.1644 71.1609 40.5714 71.1609C39.9876 71.1609 39.6309 71.0292 39.5012 70.7657C39.4363 70.6246 39.3946 70.5023 39.3761 70.3988C39.3668 70.2859 39.3622 70.1212 39.3622 69.9048V67.4351C39.3622 66.6165 39.075 66.2073 38.5005 66.2073C37.9445 66.2073 37.6666 66.6165 37.6666 67.4351V69.9331C37.6666 70.1495 37.6573 70.3141 37.6388 70.427C37.6295 70.5305 37.5878 70.6528 37.5137 70.794C37.3747 71.0386 37.0133 71.1609 36.4296 71.1609C35.8458 71.1609 35.4891 71.0339 35.3594 70.7799C35.2945 70.6387 35.2528 70.5164 35.2343 70.4129C35.225 70.3094 35.2204 70.1448 35.2204 69.919V64.9512C35.2204 64.7348 35.225 64.5749 35.2343 64.4714C35.2528 64.3585 35.2992 64.2362 35.3733 64.1044C35.5123 63.8504 35.8412 63.7234 36.3601 63.7234C36.879 63.7234 37.2172 63.8081 37.3747 63.9774C37.5322 64.1468 37.611 64.3914 37.611 64.7113Z" stroke="black" stroke-width="2" mask="url(#path-1-outside-1_608_51)"/>
<path d="M51.0518 63.7375C51.6911 63.7375 52.0664 63.9163 52.1775 64.2738C52.2331 64.4526 52.2609 64.6878 52.2609 64.9795C52.2609 65.2711 52.2285 65.5063 52.1636 65.6851C52.1081 65.8544 52.0154 65.9768 51.8857 66.052C51.6911 66.1649 51.4085 66.2214 51.0379 66.2214L50.1483 66.1649V69.9472C50.1483 70.3047 50.102 70.5729 50.0094 70.7516C49.926 70.921 49.7916 71.0339 49.6063 71.0903C49.4302 71.1468 49.1986 71.175 48.9114 71.175C48.6241 71.175 48.3925 71.1468 48.2164 71.0903C48.0496 71.0245 47.9292 70.9257 47.8551 70.794C47.7809 70.6528 47.7346 70.5258 47.7161 70.4129C47.7068 70.3 47.7022 70.1354 47.7022 69.919V66.179H47.2018C46.9609 66.1602 46.7895 66.1038 46.6876 66.0097C46.5115 65.8309 46.4235 65.4875 46.4235 64.9795C46.4235 64.2079 46.6968 63.8222 47.2435 63.8222H47.7022V63.0742C47.7022 62.3497 47.957 61.6958 48.4666 61.1125C48.9762 60.5198 49.7128 60.2234 50.6765 60.2234C50.8896 60.2234 51.0471 60.2328 51.149 60.2516C51.2602 60.261 51.3853 60.3034 51.5243 60.3786C51.7745 60.501 51.8996 60.8632 51.8996 61.4653C51.8996 61.9169 51.8208 62.2415 51.6633 62.4391C51.5336 62.5897 51.3297 62.6743 51.0518 62.6932C50.9684 62.6932 50.8386 62.6932 50.6626 62.6932C50.3198 62.6932 50.1483 62.8108 50.1483 63.046V63.8222L51.0518 63.7375Z" stroke="black" stroke-width="2" mask="url(#path-1-outside-1_608_51)"/>
<path d="M52.5481 67.4492C52.5481 66.3202 52.9373 65.3887 53.7156 64.6548C54.494 63.921 55.3835 63.554 56.3842 63.554C57.3849 63.554 58.2698 63.921 59.0388 64.6548C59.8079 65.3793 60.1924 66.306 60.1924 67.4351C60.1924 68.216 59.9932 68.9122 59.5948 69.5238C59.1963 70.126 58.7099 70.5729 58.1354 70.8645C57.5702 71.1468 56.9818 71.2879 56.3703 71.2879C55.7587 71.2879 55.1657 71.1374 54.5912 70.8363C54.0168 70.5258 53.5303 70.0742 53.1319 69.4815C52.7427 68.8793 52.5481 68.2019 52.5481 67.4492ZM55.453 68.4653C55.7495 68.6911 56.0506 68.804 56.3564 68.804C56.6622 68.804 56.9679 68.6864 57.2737 68.4512C57.5795 68.216 57.7324 67.8679 57.7324 67.4069C57.7324 66.9458 57.5887 66.6024 57.3015 66.3766C57.0143 66.1508 56.7038 66.0379 56.3703 66.0379C56.0367 66.0379 55.7263 66.1555 55.4391 66.3907C55.1518 66.6259 55.0082 66.9741 55.0082 67.4351C55.0082 67.8867 55.1565 68.2301 55.453 68.4653Z" stroke="black" stroke-width="2" mask="url(#path-1-outside-1_608_51)"/>
<path d="M66.0661 63.8081C66.2422 63.8645 66.3858 63.9633 66.497 64.1044C66.6174 64.2362 66.6777 64.4526 66.6777 64.7536C66.6777 65.0547 66.5896 65.384 66.4136 65.7415C66.2375 66.0991 65.9827 66.2778 65.6492 66.2778C65.4824 66.2778 65.3202 66.2402 65.1627 66.1649C65.0145 66.0897 64.8153 66.052 64.5651 66.052C64.3149 66.052 64.0786 66.1414 63.8562 66.3202C63.6431 66.4989 63.5366 66.7153 63.5366 66.9694V69.9331C63.5366 70.1495 63.5273 70.3141 63.5088 70.427C63.4995 70.5305 63.4578 70.6528 63.3837 70.794C63.2447 71.0386 62.8833 71.1609 62.2996 71.1609C61.8548 71.1609 61.5352 71.0809 61.3406 70.921C61.1923 70.7893 61.1089 70.587 61.0904 70.3141C61.0904 70.22 61.0904 70.0836 61.0904 69.9048V64.9512C61.0904 64.7348 61.095 64.5749 61.1043 64.4714C61.1228 64.3585 61.1645 64.2362 61.2294 64.1044C61.3591 63.8504 61.7205 63.7234 62.3135 63.7234C62.8694 63.7234 63.2169 63.8316 63.3559 64.048C63.4578 64.1985 63.5088 64.3538 63.5088 64.5137C63.5551 64.4479 63.62 64.3679 63.7034 64.2738C63.796 64.1797 63.986 64.0527 64.2732 63.8928C64.5604 63.7328 64.8106 63.6528 65.0237 63.6528C65.2461 63.6528 65.4314 63.6669 65.5797 63.6952C65.7279 63.714 65.8901 63.7516 66.0661 63.8081Z" stroke="black" stroke-width="2" mask="url(#path-1-outside-1_608_51)"/>
<path d="M71.6955 66.2214L70.7921 66.1649V68.1125C70.7921 68.3665 70.8292 68.55 70.9033 68.6629C70.9867 68.7758 71.1349 68.8323 71.3481 68.8323C71.5704 68.8323 71.7372 68.8417 71.8484 68.8605C71.9689 68.8699 72.094 68.9122 72.2237 68.9875C72.4368 69.1098 72.5433 69.425 72.5433 69.9331C72.5433 70.5258 72.4136 70.888 72.1542 71.0198C72.0152 71.0856 71.8901 71.128 71.7789 71.1468C71.677 71.1562 71.5241 71.1609 71.3203 71.1609C70.3566 71.1609 69.6246 70.9398 69.1243 70.4976C68.6239 70.0554 68.3737 69.3074 68.3737 68.2536V66.1649C68.1977 66.1932 68.0077 66.2073 67.8039 66.2073C67.6001 66.2073 67.4286 66.1273 67.2896 65.9673C67.1599 65.8074 67.0951 65.5346 67.0951 65.1488C67.0951 64.7631 67.1182 64.4855 67.1646 64.3161C67.2109 64.1374 67.2758 64.0104 67.3591 63.9351C67.5074 63.8128 67.6927 63.7516 67.9151 63.7516L68.3737 63.8081V62.3544C68.3737 62.138 68.3784 61.9781 68.3876 61.8746C68.4062 61.7711 68.4525 61.6582 68.5266 61.5359C68.6471 61.3007 69.0038 61.1831 69.5968 61.1831C70.2269 61.1831 70.6022 61.3571 70.7226 61.7052C70.7689 61.8558 70.7921 62.0957 70.7921 62.425V63.8081C71.1998 63.7704 71.5056 63.7516 71.7094 63.7516C71.9225 63.7516 72.0801 63.761 72.182 63.7798C72.2932 63.7893 72.4183 63.8316 72.5573 63.9069C72.7982 64.0292 72.9186 64.3914 72.9186 64.9936C72.9186 65.5863 72.7935 65.9485 72.5433 66.0803C72.4044 66.1461 72.2793 66.1884 72.1681 66.2073C72.0662 66.2167 71.9086 66.2214 71.6955 66.2214Z" stroke="black" stroke-width="2" mask="url(#path-1-outside-1_608_51)"/>
<path d="M74.3532 60.802H82.0809C82.3774 60.802 82.5951 60.8397 82.7341 60.9149C82.8731 60.9808 82.9658 61.089 83.0121 61.2395C83.0584 61.3901 83.0816 61.5876 83.0816 61.8323C83.0816 62.0769 83.0584 62.2745 83.0121 62.425C82.9658 62.5661 82.887 62.6649 82.7758 62.7214C82.609 62.8061 82.3727 62.8484 82.067 62.8484H79.4123V69.9472C79.4123 70.1636 79.4031 70.3235 79.3845 70.427C79.3753 70.5305 79.3336 70.6528 79.2595 70.794C79.1946 70.9257 79.0741 71.0198 78.8981 71.0762C78.722 71.1327 78.4904 71.1609 78.2031 71.1609C77.9159 71.1609 77.6843 71.1327 77.5082 71.0762C77.3414 71.0198 77.221 70.9257 77.1469 70.794C77.082 70.6528 77.0403 70.5305 77.0218 70.427C77.0125 70.3141 77.0079 70.1495 77.0079 69.9331V62.8484H74.3393C74.0428 62.8484 73.8251 62.8155 73.6861 62.7496C73.5471 62.6743 73.4544 62.5614 73.4081 62.4109C73.3618 62.2604 73.3386 62.0628 73.3386 61.8181C73.3386 61.5735 73.3618 61.3807 73.4081 61.2395C73.4544 61.089 73.5332 60.9855 73.6444 60.929C73.8112 60.8444 74.0474 60.802 74.3532 60.802Z" stroke="black" stroke-width="2" mask="url(#path-1-outside-1_608_51)"/>
<path d="M89.2433 66.5601C89.2433 67.134 89.0996 67.5621 88.8124 67.8444C88.5344 68.1172 88.224 68.2536 87.8812 68.2536H84.5872C84.5872 68.5171 84.7401 68.7382 85.0459 68.9169C85.3516 69.0957 85.6574 69.1851 85.9632 69.1851C86.5006 69.1851 86.9222 69.1286 87.228 69.0157L87.3808 68.9593C87.6032 68.8558 87.7885 68.804 87.9368 68.804C88.2333 68.804 88.4881 69.0157 88.7012 69.4391C88.8217 69.6932 88.8819 69.9096 88.8819 70.0883C88.8819 70.9257 87.8951 71.3444 85.9215 71.3444C85.2358 71.3444 84.6243 71.2268 84.0869 70.9915C83.5587 70.7469 83.1464 70.427 82.8499 70.0319C82.2661 69.2698 81.9743 68.4183 81.9743 67.4774C81.9743 66.2919 82.3495 65.3464 83.1 64.6407C83.8598 63.9257 84.805 63.5682 85.9354 63.5682C87.2233 63.5682 88.1684 64.0292 88.7707 64.9512C89.0857 65.4405 89.2433 65.9768 89.2433 66.5601ZM86.3106 66.9694C86.6627 66.9694 86.8388 66.8188 86.8388 66.5177C86.8388 66.3013 86.7554 66.1273 86.5886 65.9956C86.4311 65.8639 86.1995 65.798 85.8937 65.798C85.5972 65.798 85.3007 65.925 85.0042 66.179C84.7077 66.4237 84.5594 66.6871 84.5594 66.9694H86.3106Z" stroke="black" stroke-width="2" mask="url(#path-1-outside-1_608_51)"/>
<path d="M92.5406 64.7113C92.9761 64.0433 93.4996 63.7093 94.1112 63.7093C95.0563 63.7093 95.7605 64.1186 96.2238 64.9371C96.3257 64.796 96.4461 64.6501 96.5851 64.4996C96.7334 64.3396 96.965 64.1703 97.2801 63.9915C97.5951 63.8034 97.9194 63.7093 98.253 63.7093C98.9942 63.7093 99.615 64.0009 100.115 64.5843C100.616 65.1582 100.866 66.1132 100.866 67.4492V69.919C100.866 70.1354 100.857 70.3 100.838 70.4129C100.829 70.5164 100.787 70.6387 100.713 70.7799C100.593 71.0339 100.236 71.1609 99.6428 71.1609C99.0591 71.1609 98.7024 71.0292 98.5726 70.7657C98.5078 70.6246 98.4661 70.5023 98.4476 70.3988C98.4383 70.2859 98.4337 70.1212 98.4337 69.9048V67.4351C98.4337 66.6165 98.1464 66.2073 97.5719 66.2073C97.2476 66.2073 97.0253 66.3155 96.9048 66.5319C96.7936 66.7483 96.738 67.054 96.738 67.4492V69.919C96.738 70.1448 96.7288 70.3094 96.7102 70.4129C96.701 70.5164 96.6593 70.6387 96.5851 70.7799C96.4554 71.0339 96.094 71.1609 95.501 71.1609C94.9173 71.1609 94.5606 71.0292 94.4308 70.7657C94.366 70.6246 94.3243 70.5023 94.3057 70.3988C94.2965 70.2859 94.2918 70.1212 94.2918 69.9048V67.4351C94.2918 66.6165 94.0046 66.2073 93.4301 66.2073C92.8742 66.2073 92.5962 66.6165 92.5962 67.4351V69.9331C92.5962 70.1495 92.5869 70.3141 92.5684 70.427C92.5591 70.5305 92.5175 70.6528 92.4433 70.794C92.3043 71.0386 91.943 71.1609 91.3592 71.1609C90.7755 71.1609 90.4188 71.0339 90.289 70.7799C90.2242 70.6387 90.1825 70.5164 90.1639 70.4129C90.1547 70.3094 90.15 70.1448 90.15 69.919V64.9512C90.15 64.7348 90.1547 64.5749 90.1639 64.4714C90.1825 64.3585 90.2288 64.2362 90.3029 64.1044C90.4419 63.8504 90.7708 63.7234 91.2897 63.7234C91.8086 63.7234 92.1468 63.8081 92.3043 63.9774C92.4619 64.1468 92.5406 64.3914 92.5406 64.7113Z" stroke="black" stroke-width="2" mask="url(#path-1-outside-1_608_51)"/>
<path d="M101.972 73.179V64.9371C101.972 64.7207 101.977 64.5608 101.986 64.4573C102.005 64.3538 102.046 64.2362 102.111 64.1044C102.241 63.8504 102.551 63.7234 103.042 63.7234C103.533 63.7234 103.862 63.7893 104.029 63.921C104.205 64.0433 104.307 64.2268 104.335 64.4714C104.687 63.9821 105.238 63.7375 105.989 63.7375C106.749 63.7375 107.467 64.0997 108.143 64.8242C108.819 65.5487 109.158 66.3907 109.158 67.3504C109.158 68.3101 108.819 69.1522 108.143 69.8766C107.476 70.6011 106.762 70.9633 106.003 70.9633C105.243 70.9633 104.692 70.7469 104.349 70.3141V73.1649C104.349 73.3813 104.339 73.5413 104.321 73.6448C104.312 73.7483 104.27 73.8659 104.196 73.9976C104.131 74.1387 104.015 74.2375 103.848 74.294C103.682 74.3504 103.455 74.3786 103.167 74.3786C102.88 74.3786 102.648 74.3504 102.472 74.294C102.306 74.2375 102.185 74.1434 102.111 74.0117C102.046 73.88 102.005 73.7624 101.986 73.6589C101.977 73.5554 101.972 73.3954 101.972 73.179ZM104.724 66.5319C104.511 66.7859 104.404 67.0634 104.404 67.3645C104.404 67.6656 104.511 67.9431 104.724 68.1972C104.946 68.4418 105.224 68.5641 105.558 68.5641C105.901 68.5641 106.188 68.4418 106.42 68.1972C106.661 67.9526 106.781 67.675 106.781 67.3645C106.781 67.054 106.67 66.7765 106.447 66.5319C106.225 66.2778 105.933 66.1508 105.572 66.1508C105.22 66.1508 104.937 66.2778 104.724 66.5319Z" stroke="black" stroke-width="2" mask="url(#path-1-outside-1_608_51)"/>
</svg>
